<?xml version="1.0" encoding="UTF-8" standalone="no"?>
<svg
   xmlns:dc="http://purl.org/dc/elements/1.1/"
   xmlns:cc="http://creativecommons.org/ns#"
   xmlns:rdf="http://www.w3.org/1999/02/22-rdf-syntax-ns#"
   xmlns:svg="http://www.w3.org/2000/svg"
   xmlns="http://www.w3.org/2000/svg"
   xmlns:sodipodi="http://sodipodi.sourceforge.net/DTD/sodipodi-0.dtd"
   xmlns:inkscape="http://www.inkscape.org/namespaces/inkscape"
   version="1.0"
   width="340.000000pt"
   height="240.000000pt"
   viewBox="0 0 340.000000 240.000000"
   preserveAspectRatio="xMidYMid meet"
   id="svg3003"
   inkscape:version="0.48.4 r9939"
   sodipodi:docname="MasonACM_icon.svg">
  <defs
     id="defs3019" />
  <sodipodi:namedview
     pagecolor="#ffffff"
     bordercolor="#666666"
     borderopacity="1"
     objecttolerance="10"
     gridtolerance="10"
     guidetolerance="10"
     inkscape:pageopacity="0"
     inkscape:pageshadow="2"
     inkscape:window-width="1366"
     inkscape:window-height="706"
     id="namedview3017"
     showgrid="false"
     inkscape:zoom="1.4887913"
     inkscape:cx="125.48119"
     inkscape:cy="169.42817"
     inkscape:window-x="-8"
     inkscape:window-y="-8"
     inkscape:window-maximized="1"
     inkscape:current-layer="svg3003" />
  <metadata
     id="metadata3005">
Created by potrace 1.11, written by Peter Selinger 2001-2013
<rdf:RDF>
  <cc:Work
     rdf:about="">
    <dc:format>image/svg+xml</dc:format>
    <dc:type
       rdf:resource="http://purl.org/dc/dcmitype/StillImage" />
    <dc:title></dc:title>
  </cc:Work>
</rdf:RDF>
</metadata>
  <path
     style="fill:#999999;stroke:none;stroke-width:1px;stroke-linecap:butt;stroke-linejoin:miter;stroke-opacity:1;fill-opacity:1"
     d="m 4.9558785,-0.06055894 0,77.58945994 17.5874745,0 0,129.841039 -22.39884433,0 0,92.42569 147.30565133,0 0,-92.37348 -22.48028,0 0,-35.35534 87.45787,115.14417 87.39161,-115.24566 0,35.58526 -22.32658,0 0,92.34724 147.79312,0 0,-92.57786 -22.88901,0 0,-129.97685 17.57549,0 0,-77.3525771 -137.43622,0 L 212.43858,127.51499 142.341,-0.11165016 z"
     id="mOuter1"
     inkscape:connector-curvature="0"
     transform="scale(0.8,0.8)"
     inkscape:label="#path3849" 
     onmouseover="evt.target.setAttribute('fill', '#ffffff');"
     onmouseout="evt.target.setAttribute('fill', '#999999');"/>
  <path
     style="fill:#222222;fill-opacity:1;stroke:none"
     d="m 14.084971,10.900669 0,40.162006 17.963892,0 -0.462428,127.436885 -19.405753,-0.23122 -0.231214,50.79357 93.981332,0 -0.92486,-52.37384 -15.997172,0 0,-70.74194 79.757392,103.72815 78.72394,-97.42307 1.30794,64.63911 -16.67404,0 0,52.24641 94.80465,0 0,-52.06105 -17.22129,0 0.46243,-126.149038 12.86842,0 0,-40.913424 -91.84185,0 L 170.62381,126.04296 107.27667,10.400836 z"
     id="mInner"
     inkscape:connector-curvature="0"
     sodipodi:nodetypes="ccccccccccccccccccccccccc"
     inkscape:label="#path3849-0" />
  <rect
     style="fill:#999999;fill-opacity:1;stroke:none"
     id="mOuter5"
     width="68.480179"
     height="7.624248"
     x="42.8493"
     y="3.121387"
     inkscape:label="#rect5365" 
     onmouseover="evt.target.setAttribute('fill', '#ffffff');"
     onmouseout="evt.target.setAttribute('fill', '#999999');"/>
  <path
     style="fill:#999999;stroke:none;stroke-width:1px;stroke-linecap:butt;stroke-linejoin:miter;stroke-opacity:1;fill-opacity:1"
     d="m 134.31963,13.427605 8.02137,-13.59034685 8.68556,18.59731685 11.90433,21.049711 32.85185,61.463114 11.03578,29.42872 14.30562,-4.49606 20.02788,-47.412936 40.05576,-71.5281426 86.65124,-1.634929 45.36928,1.634929 5.31352,20.4366126 1.07292,15.097546 -2.70785,31.497929 -15.94056,1.430563 0.55101,8.666287 -0.55101,60.205101 0.9452,7.28054 -0.91965,8.53228 -2.14795,53.78699 23.98844,2.02312 1.15607,3.17919 0.78654,8.83471 0,13.48816 -1.12401,26.26105 -2.5527,27.42765 -113.2948,3.75722 -23.41041,-1.44509 -3.4682,-83.52601 21.96531,-5.49133 -1.15607,-38.4393 -6.35838,-1.15607 -17.34104,25.72254 -12.78901,22.03757 -7.65896,10.04336 -15.31792,19.07514 -17.55781,19.79769 -17.34104,5.0578 -13.07803,-10.76589 -10.40463,-16.18498 -8.59826,-7.22543 -10.33237,-14.66763 -11.92197,-12.71676 -4.82297,-6.21388 -5.35979,1.71318 0.91965,24.31957 2.24802,55.58758 -14.30562,5.10915 0.66419,-3.16767 -1.12402,-65.60153 11.80944,-24.46317 18.46099,1.55347 4.76878,6.21388 44.61706,58.05635 98.4104,-121.74855 0.65029,30.41907 1.10188,50.3974 -0.55997,-0.0361 -1.60766,-2.13151 -19.45448,1.987 -1.01156,6.50289 0.72254,60.98266 26.73708,-2.00411 63.86986,-0.019 28.10693,0.72255 1.37284,-0.50578 0.28901,-3.25145 -0.86705,-19.23771 -0.0181,-4.87717 1.44508,-1.37283 -0.41546,-6.59321 -1.02962,-1.31864 0.0181,-2.16763 -0.0181,-6.57515 0.0181,-7.42413 -0.0181,-6.57515 0,-5.88872 -2.37261,-3.71071 -13.30658,3.70167 -2.79083,0.009 -1.73353,-12.24299 0.68973,-31.39575 -1.83929,-0.99628 0,-5.31352 0.20436,-52.31773 0,-55.43431 16.28964,0 0,-53.525579 L 355.6875,12.5 l -67.125,0 0.28125,0.34375 -18.9375,36.25 -28.91542,55.30284 -17.89864,26.95844 -18.73833,3.88909 -9.19239,-20.5061 -10.20885,-8.88303 z"
     id="mOuter2"
     inkscape:connector-curvature="0"
     transform="scale(0.8,0.8)"
     inkscape:label="#path5369" 
     onmouseover="evt.target.setAttribute('fill', '#ffffff');"
     onmouseout="evt.target.setAttribute('fill', '#999999');"/>
  <path
     style="fill:#999999;stroke:none;stroke-width:1px;stroke-linecap:butt;stroke-linejoin:miter;stroke-opacity:1;fill-opacity:1"
     d="m 140.60389,215.59679 -34.74224,-0.30655 -22.07154,-11.13795 -7.152814,-9.70739 -13.920533,9.60134 -2.601156,-10.98266 3.757225,-18.49711 -4.624277,-16.47398 5.780347,-14.16185 10.982659,-9.82659 13.872832,-13.58382 17.341037,-10.69364 21.38729,-8.3815 -0.28902,7.80346 2.60116,2.31214 10.40462,-2.89017 18.49711,-1.44509 12.13873,5.20232 19.65318,-3.46821 0,3.46821 -3.75723,10.40462 12.13873,2.02312 21.96532,-9.53757 16.18497,-5.20231 13.00578,1.7341 13.2948,2.02312 10.69364,3.75723 51.15607,-18.786129 24.27745,-4.913295 7.51446,2.312138 -13.00578,7.803466 -86.12717,49.42197 0.28902,17.91907 -7.51446,4.04625 -21.96531,-15.02891 -19.9422,-1.15607 -15.60694,10.98266 -4.04624,17.34104 -24.56647,5.49133 -22.83237,10.40463 1.15607,8.3815 z"
     id="cometBack"
     inkscape:connector-curvature="0"
     transform="scale(0.8,0.8)"
     inkscape:label="#path3980" 
     onmouseover="evt.target.setAttribute('fill', '#ffffff');"
     onmouseout="evt.target.setAttribute('fill', '#999999');"/>
  <path
     d="m 117.81228,165.82754 c -1.4,-1.3 -1.4,-1.7 0,-3 14.90244,-7.82859 32.4659,-11.47845 46.6,-11.5 10,0 16,-0.4 16,-1 -4.45787,-4.57835 -21.9074,-4.75466 -24,-8.4 0,-0.3 2.3,-0.6 5,-0.6 2.8,0 5,-0.5 5,-1 0,-0.6 -1.2,-1 -2.6,-1 -1.4,0 -3.2,-0.7 -4,-1.5 -1.3,-1.3 -1.2,-1.8 1,-4 3.78532,-2.77116 9.55476,-4.43542 13.6,-4.5 6.33897,-0.28407 17.0589,7.36209 18,11 1.52049,10.8262 19.66534,-3.0848 20,-9.5 0,-2.8 -0.68902,-2.74855 -2,-3.5 -8.22854,-3.53919 37.18674,-29.555323 53.5,-30.000003 8.8,0 9.8,-0.2 12,-2.5 2.5,-2.4 3.3,-5.5 1.5,-5.5 -0.5,0 -1,0.4 -1,1 0,0.5 -1.3,1 -3,1 -2.3,0 -3,-0.4 -3,-2 0.86533,-2.59908 21.95866,-12.01455 22,-14 0,-1.7 -0.7,-2 -5,-2 -23.66966,-2.23911 -50.27515,16.800009 -68.2,18 -2.4,0 -2.8,-0.4 -2.8,-3 0,-3.6 -2.7,-4.1 -5,-1 -1,1.4 -2.6,2 -5.2,2 -2.1,0 -3.8,-0.5 -3.8,-1 0,-0.6 -3.3,-1 -8,-1 -9.71554,0.34606 -22.70544,4.99998 -30,9 -1.6758,1.127769 -9,1.2 -10.8,-0.7 -1.2,-1.2 -1.3,-1.8 -0.4,-2.1 1.30566,-3.390911 3.60814,-4.808311 5.2,-7.4 0,-0.4 -0.9,-0.8 -2,-0.8 -3.98634,1.563709 -17.22051,3.675389 -20,1 0,-0.6 -5.7,-1 -15,-1 -6.34344,0.195029 -11.40381,-0.497931 -16,2 -1.8,0 -1.1,-3.5 1,-5 2.8,-2 2.5,-3 -1,-3 -13.523859,3.47658 -31.822634,13.00728 -41.000002,21.000003 -7,7.1 -10,8.6 -10,5 0,-1.1 -0.4,-2 -1,-2 -4.020826,5.13631 -8.678908,18.46033 -9.000001,24 -0.260602,3.26432 1.601041,11.47481 3.3,12.4 0.9,0.5 0.9,0.7 0,1.2 -2.477639,4.3232 -3.259668,10.83045 -3.3,15.4 -0.283297,5.21363 2.073233,13.8822 5,16.99999 0.6,0 1,-0.89999 1,-1.99999 0.931047,-3.07545 6.25879,-11.15167 8.000001,-10 7.784915,4.84338 14.998964,12.43743 24.069304,13.0323 11.725622,0.64185 46.880138,5.31921 35.330698,-8.5323 z m 162.6,-87.900003 c -22.83614,18.587609 -60.40232,24.286333 -75.18506,43.090353 -2.57388,2.27956 -0.66922,9.40253 -0.81494,13.40965 0,2.2 -0.5,2.9 -2,2.9 -1.1,0 -2,-0.7 -2,-1.5 -3.6008,-8.3316 -18.73204,-12.47651 -26,-12.5 -8.30774,-0.3359 -19.93183,5.94651 -22,11.6 0,2.5 -2.6,4.4 -6,4.4 -1.7,0 -3.8,0.7 -4.6,1.5 -1.4,1.3 -1.4,1.7 0,3 0.8,0.8 2.6,1.5 4,1.5 1.4,0 2.6,0.4 2.6,1 -6.6949,0.47318 -39.9147,14.90367 -40,19 0,1.3 0.7,2 2,2 2.4,0 2.5,0.6 0.6,2.6 -15.887406,4.98991 -45.45781,-3.55132 -46.600002,-15.8 0,-4 -2.4,-3.6 -7,1.2 -12.510794,11.55132 -5.45897,-13.48325 -1.7,-16.4 0.9,-0.5 0.9,-0.7 0,-1.2 -9.579719,-4.33514 -1.644257,-24.59715 0.9,-19.2 0.6,1.7 3.8,-1.4 3.8,-3.6 1.352337,-2.50811 2.087191,-7.31047 5.36058,-10.82846 4.841744,-5.20353 12.692423,-9.770936 19.137537,-13.572616 5.566163,-3.283231 11.479471,-5.459368 14.351589,-6.736497 4.104636,-1.907515 1.850296,0.03757 -1.849706,3.53757 -1.6,1.5 -3,3.1 -3,3.4 9.897502,3.117309 18.940682,-3.354891 27.000002,-3.4 6.41386,-0.414391 11.04488,5.377609 17,6 4.28104,0.365369 6.93148,-3.72024 11,-4 1.7,0 3,0.4 3,1 -1.62258,2.98416 -5.46286,6.415789 -6,10.200003 0,2.7 0.2,2.8 5,2.8 15.6956,1.91848 35.53994,-19.402374 45.6,-12.600003 1.7,1.8 1.8,4.3 0.2,4.9 -0.7,0.2 -1,0.8 -0.6,1.2 0.5,0.5 1.6,-0.2 2.7,-1.3 1.47822,-1.60578 6.25606,-4.1826 8.1,-4.2 2.6,0 3,0.4 3,2.8 0,1.6 -0.8,3.4 -2,4.2 -2.8,2.000003 -2.5,3.000003 1,3.000003 18.9934,-9.488783 49.69313,-20.831063 67,-24.000003 2.2,-0.40462 4,0.3 4,0.6 z"
     id="cometBorder"
     inkscape:connector-curvature="0"
     sodipodi:nodetypes="cccccsssscccccccsssccccscsscccccccccsccscccccccccccccscccccssccccccccccsscsccccccccsccccsccc"
     style="fill:#222222;fill-opacity:1;stroke:none;stroke-width:0.92000002000000003;stroke-miterlimit:4;stroke-opacity:1;stroke-dasharray:none"
     inkscape:label="#path3011-8" />
  <path
     sodipodi:type="arc"
     style="fill:#999999;fill-opacity:1;fill-rule:evenodd;stroke:#1e1e1e;stroke-width:3.56957960000000000;stroke-linecap:butt;stroke-linejoin:miter;stroke-miterlimit:4;stroke-opacity:1;stroke-dasharray:none"
     id="cometCircle"
     sodipodi:cx="126.19608"
     sodipodi:cy="160.82668"
     sodipodi:rx="45.675827"
     sodipodi:ry="38.829563"
     d="m 171.87191,160.82668 a 45.675827,38.829563 0 1 1 -91.351654,0 45.675827,38.829563 0 1 1 91.351654,0 z"
     transform="matrix(0.79600558,0,0,0.79217439,-0.23163689,0.23793931)"
     inkscape:label="#path3051" 
     onmouseover="evt.target.setAttribute('fill', '#ffffff');"
     onmouseout="evt.target.setAttribute('fill', '#999999');"/>
  <path
     style="fill:#222222;fill-opacity:1;stroke:none"
     d="m 100.03722,142.5359 15.73619,0.10219 8.48119,12.46633 8.68556,-12.15978 16.88576,0 0,6.64189 -2.4524,0 -0.0723,18.25358 2.74579,-0.0227 -0.14451,9.56288 -17.4733,0 0,-9.60521 2.35021,0 0,-6.33535 -10.42267,12.6707 -8.68556,-11.75105 0,5.82443 1.83929,0 0,9.29866 -17.677669,0 0,-9.29866 2.452389,0 0,-18.0864 -2.04366,0 z"
     id="cometM"
     inkscape:connector-curvature="0"
     transform="scale(0.8,0.8)"
     sodipodi:nodetypes="ccccccccccccccccccccccccc"
     inkscape:label="#path3823" />
  <rect
     style="fill:#999999;fill-opacity:1;stroke:none"
     id="mOuter4"
     width="39.289387"
     height="15.6851"
     x="0.1532746"
     y="207.31996"
     transform="scale(0.8,0.8)"
     inkscape:label="#rect5359" 
     onmouseover="evt.target.setAttribute('fill', '#ffffff');"
     onmouseout="evt.target.setAttribute('fill', '#999999');"/>
  <rect
     style="fill:#999999;fill-opacity:1;stroke:none"
     id="mOuter3"
     width="11.934981"
     height="93.157089"
     x="19.619148"
     y="85.253975"
     inkscape:label="#rect5363" 
     onmouseover="evt.target.setAttribute('fill', '#ffffff');"
     onmouseout="evt.target.setAttribute('fill','#999999');"/>
</svg>
